<svg width="1200" height="640" viewBox="0 0 1200 640" fill="none" xmlns="http://www.w3.org/2000/svg">
<path d="M871.249 572.02L868.838 597.069L884.651 594.65L892.07 565.381L871.249 572.02Z" fill="white" stroke="#FF801F" stroke-width="3.46" stroke-miterlimit="10"/>
<path d="M894.18 572.623L900.163 603.15L912.289 600.952L909.576 567.491L894.18 572.623Z" fill="white" stroke="#FF801F" stroke-width="3.46" stroke-miterlimit="10"/>
<path d="M938.41 20H504.899V348.112H938.41V20Z" fill="white" stroke="#087B89" stroke-width="2" stroke-miterlimit="10"/>
<path d="M928.288 28.6954H515.022V339.425H928.288V28.6954Z" fill="white" stroke="#087B89" stroke-width="2" stroke-miterlimit="10"/>
<path d="M655.017 64.6559H583.043C570.545 64.6559 560.413 74.7874 560.413 87.2852V274.436C560.413 286.933 570.545 297.065 583.043 297.065H655.017C667.515 297.065 677.646 286.933 677.646 274.436V87.2852C677.646 74.7874 667.515 64.6559 655.017 64.6559Z" fill="white" stroke="#FF801F" stroke-width="2" stroke-miterlimit="10"/>
<path d="M648.582 72.4827H589.478C576.98 72.4827 566.848 82.6141 566.848 95.112V266.706C566.848 279.204 576.98 289.336 589.478 289.336H648.582C661.079 289.336 671.211 279.204 671.211 266.706V95.112C671.211 82.6141 661.079 72.4827 648.582 72.4827Z" fill="white" stroke="#FF801F" stroke-miterlimit="10"/>
<path d="M579.169 101.955H658.881" stroke="black" stroke-width="1.73" stroke-miterlimit="10"/>
<path d="M623.089 115.782H583.229V157.265H623.089V115.782Z" fill="white" stroke="#087B89" stroke-width="2" stroke-miterlimit="10"/>
<path d="M591.366 115.782L584.86 123.104L598.687 118.22L584.86 131.241L607.64 116.598L584.86 141L615.768 118.22L583.229 148.321L622.283 121.482L583.229 157.274L622.283 131.241L594.619 155.643L623.089 140.184L605.193 154.827L622.283 149.137L619.03 154.827" fill="white"/>
<path d="M591.366 115.782L584.86 123.104L598.687 118.22L584.86 131.241L607.64 116.598L584.86 141L615.768 118.22L583.229 148.321L622.283 121.482L583.229 157.274L622.283 131.241L594.619 155.643L623.089 140.184L605.193 154.827L622.283 149.137L619.03 154.827" stroke="#087B89" stroke-width="2" stroke-miterlimit="10"/>
<path d="M657.454 242.686H626.972V274.409H657.454V242.686Z" fill="white" stroke="#087B89" stroke-width="2" stroke-miterlimit="10"/>
<path d="M582.422 172.723H660.512" stroke="black" stroke-width="1.73" stroke-miterlimit="10"/>
<path d="M581.607 180.045L658.881 180.86" stroke="black" stroke-width="1.73" stroke-miterlimit="10"/>
<path d="M631.226 118.229H656.444" stroke="black" stroke-width="1.73" stroke-miterlimit="10"/>
<path d="M631.226 127.988H656.444" stroke="black" stroke-width="1.73" stroke-miterlimit="10"/>
<path d="M631.226 137.747H656.444" stroke="black" stroke-width="1.73" stroke-miterlimit="10"/>
<path d="M631.226 147.506H656.444" stroke="black" stroke-width="1.73" stroke-miterlimit="10"/>
<path d="M658.881 184.929H583.229V221.536H658.881V184.929Z" fill="white" stroke="#087B89" stroke-width="2" stroke-miterlimit="10"/>
<path d="M586.491 231.295H656.444" stroke="black" stroke-width="1.73" stroke-miterlimit="10"/>
<path d="M584.86 240.248H607.64" stroke="black" stroke-width="1.73" stroke-miterlimit="10"/>
<path d="M672.718 92.1958L728.56 85.3352" stroke="#1A2E35" stroke-width="2" stroke-linecap="round" stroke-linejoin="round"/>
<path d="M663.765 132.056H722.337" stroke="#1A2E35" stroke-width="2" stroke-linecap="round" stroke-linejoin="round"/>
<path d="M715.016 124.735L728.028 132.863L716.638 137.747" stroke="#1A2E35" stroke-width="2" stroke-linecap="round" stroke-linejoin="round"/>
<path d="M717.985 82.8976L731.813 84.5197L722.054 93.4721" stroke="#1A2E35" stroke-width="2" stroke-linecap="round" stroke-linejoin="round"/>
<path d="M772.764 69.0701H741.855V101.609H772.764V69.0701Z" fill="white" stroke="#E6385B" stroke-width="2" stroke-miterlimit="10"/>
<path d="M749.177 76.3828L767.073 77.1983" stroke="#1A2E35" stroke-width="2" stroke-linecap="round" stroke-linejoin="round"/>
<path d="M749.177 82.8976L767.073 83.7042" stroke="#1A2E35" stroke-width="2" stroke-linecap="round" stroke-linejoin="round"/>
<path d="M749.177 89.4036L767.073 90.219" stroke="#1A2E35" stroke-width="2" stroke-linecap="round" stroke-linejoin="round"/>
<path d="M770.762 119.731L740.067 123.353L743.88 155.668L774.575 152.046L770.762 119.731Z" fill="white" stroke="#E6385B" stroke-width="2" stroke-miterlimit="10"/>
<path d="M748.184 129.814L766.054 128.528" stroke="#1A2E35" stroke-width="2" stroke-linecap="round" stroke-linejoin="round"/>
<path d="M748.947 136.275L766.816 134.99" stroke="#1A2E35" stroke-width="2" stroke-linecap="round" stroke-linejoin="round"/>
<path d="M749.709 142.737L767.578 141.452" stroke="#1A2E35" stroke-width="2" stroke-linecap="round" stroke-linejoin="round"/>
<path d="M918.059 384.958C918.059 384.958 899.037 448.982 896.715 457.801C894.393 466.621 907.857 544.099 907.857 545.491C907.857 546.882 909.709 551.057 909.709 555.693C909.709 560.329 907.857 561.729 908.823 563.121C909.789 564.513 912.998 567.757 912.537 570.54C912.076 573.323 911.651 574.254 909.754 576.115C908.729 577.185 907.452 577.98 906.04 578.429H894.863C894.863 578.429 892.079 557.554 884.651 502.351C877.224 447.147 889.296 415.583 891.609 405.381C893.191 398.793 895.529 392.41 898.576 386.359L918.059 384.958Z" fill="white" stroke="#087B89" stroke-width="2" stroke-miterlimit="10"/>
<path d="M841.502 384.958C841.502 384.958 841.041 425.324 843.364 442.484C845.686 459.645 854.497 499.559 855.888 521.372C857.28 543.186 859.602 553.388 859.602 553.388C859.602 553.388 856.349 556.172 856.349 558.955C856.349 561.738 858.211 561.738 857.741 565.913C857.271 570.088 855.427 571.479 856.854 573.341C858.281 575.202 859.168 578.907 863.812 579.829C868.457 580.751 890.253 580.299 894.898 579.368C899.542 578.438 901.856 573.802 901.856 570.088C901.856 566.374 900.464 563.591 900.464 559.451C900.464 555.312 902.787 551.562 902.787 548.815C902.787 546.067 901.9 544.64 901.9 541.857C901.9 539.073 895.873 494.533 895.873 485.252C895.873 475.972 895.403 444.426 896.759 436.501C898.115 428.577 905.109 391.03 905.109 391.03L841.502 384.958Z" fill="white" stroke="#087B89" stroke-width="2" stroke-miterlimit="10"/>
<path d="M781.583 122.714L780.883 151.202L807.749 150.972L807.979 122.483L781.583 122.714Z" fill="white" stroke="#E6385B" stroke-width="2" stroke-miterlimit="10"/>
<path d="M812.145 175.276C812.145 175.276 806.357 169.488 803.813 164.161C801.269 158.834 797.556 155.59 797.556 151.885C797.556 148.18 799.178 139.617 798.442 136.143C797.706 132.668 798.442 125.506 800.755 125.506C801.3 125.5 801.839 125.619 802.33 125.854C802.821 126.09 803.251 126.435 803.587 126.864C803.923 127.292 804.156 127.793 804.268 128.326C804.379 128.859 804.366 129.411 804.23 129.938C803.769 132.251 805.622 140.362 805.622 140.362C805.622 140.362 807.474 124.841 807.705 123.919C807.935 122.998 811.179 123.033 812.571 123.689C813.962 124.345 815.576 124.15 815.576 127.164C815.576 130.177 814.884 133.643 814.884 134.343C814.884 135.043 821.373 138.775 821.603 141.523C821.834 144.271 821.133 151.016 819.52 153.79C818.396 155.538 817.463 157.401 816.737 159.348C816.506 160.234 822.986 169.985 822.986 169.985L812.145 175.276Z" fill="white" stroke="#FF801F" stroke-width="3.46" stroke-miterlimit="10"/>
<path d="M822.942 165.526L807.173 177.59C807.173 177.59 834.083 233.272 835.005 235.125C835.927 236.977 855.392 249.041 855.392 249.041L884.642 212.859C884.642 212.859 847.991 201.256 847.06 199.864C846.129 198.473 822.942 165.526 822.942 165.526Z" fill="white" stroke="#FF325D" stroke-width="2" stroke-miterlimit="10"/>
<path d="M841.556 370.085L840.226 391.695C840.226 391.695 858.06 399.247 877.277 398.901C896.493 398.555 922.216 391.012 922.216 391.012L925.992 369.739C925.992 369.739 879.679 373.515 865.612 372.141C851.545 370.767 841.556 370.085 841.556 370.085Z" fill="white" stroke="#FF325D" stroke-width="2" stroke-miterlimit="10"/>
<path d="M853.912 235.603C853.912 235.603 842.593 255.502 838.843 270.943C835.094 286.384 827.524 357.738 826.487 361.85C825.45 365.963 849.48 374.198 865.257 374.543C881.035 374.889 916.375 375.572 922.553 373.169C928.731 370.767 934.555 367.337 934.555 363.57C934.555 359.803 934.9 345.727 934.9 334.408C934.9 323.089 931.47 263.391 928.385 249.67C925.895 238.635 925.132 232.075 922.181 224.63C918.103 214.233 909.523 192.348 896.245 191.311C884.864 190.424 874.334 205.236 862.749 221.519C859.538 226.042 856.587 230.744 853.912 235.603Z" fill="white" stroke="#FF325D" stroke-width="2" stroke-miterlimit="10"/>
<path d="M750.444 257.78C750.444 257.78 744.878 260.103 744.408 265.669C743.938 271.236 754.158 276.811 760.186 285.17C766.213 293.528 774.102 302.339 774.102 302.339L786.157 319.029L800.543 306.966L763.421 263.817C763.421 263.817 765.282 259.642 762.96 258.25C760.638 256.859 754.619 255.937 750.444 257.78Z" fill="white" stroke="black" stroke-width="1.73" stroke-miterlimit="10"/>
<path d="M751.375 270.775L793.133 256.823C793.133 256.823 795.916 268.417 808.44 280.481C815.965 287.734 824.031 294.404 832.568 300.433L795.021 321.813L751.375 270.775Z" fill="white" stroke="black" stroke-width="1.73" stroke-miterlimit="10"/>
<path d="M751.375 270.775C753.216 268.709 754.353 266.11 754.619 263.356C755.08 258.711 750.444 257.78 750.444 257.78L791.741 245.717C791.741 245.717 799.621 248.509 793.133 256.859L751.375 270.775Z" fill="white" stroke="black" stroke-width="1.73" stroke-miterlimit="10"/>
<path d="M806.703 314.89C806.703 314.89 797.423 313.498 796.953 310.715C796.483 307.932 794.63 301.905 792.778 299.582C790.925 297.26 782.141 292.624 779.323 289.371C776.504 286.118 774.687 281.491 772.826 281.952C770.964 282.413 768.19 284.274 769.112 286.127C770.033 287.979 774.217 295.877 774.217 295.877L775.148 299.13C775.148 299.13 766.798 297.739 765.398 297.269C763.997 296.799 762.145 297.739 762.145 300.052C762.145 302.365 760.292 302.374 762.614 303.766C764.937 305.158 767.711 307.019 767.711 307.019C767.711 307.019 770.964 314.438 771.886 315.83C772.808 317.221 780.245 320.474 781.636 321.396C783.028 322.318 790.447 324.649 794.161 325.571C797.875 326.493 806.224 329.746 806.224 329.746L808.547 319.109L806.703 314.89Z" fill="white" stroke="#FF801F" stroke-width="3.46" stroke-miterlimit="10"/>
<path d="M905.065 250.867C905.065 250.867 904.178 290.302 904.178 292.163C904.178 294.025 905.57 332.05 901.395 335.312C897.22 338.574 876.798 342.731 847.104 341.801C817.411 340.87 804.425 334.382 804.425 334.382L806.738 314.881L863.272 310.715C863.272 310.715 857.244 267.566 858.175 252.719C859.106 237.872 871.161 229.984 871.161 229.984" fill="white"/>
<path d="M905.065 250.867C905.065 250.867 904.178 290.302 904.178 292.163C904.178 294.025 905.57 332.05 901.395 335.312C897.22 338.574 876.798 342.731 847.104 341.801C817.411 340.87 804.425 334.382 804.425 334.382L806.738 314.881L863.272 310.715C863.272 310.715 857.244 267.566 858.175 252.719C859.106 237.872 871.161 229.984 871.161 229.984" stroke="#FF325D" stroke-width="2" stroke-miterlimit="10"/>
<path d="M843.31 130.904C838.379 141.566 835.326 153 834.287 164.702C833.764 178.609 836.778 183.183 839.721 184.734C842.309 186.099 847.911 187.526 853.486 188.324C854.619 188.459 855.727 188.758 856.775 189.21L862.749 221.51L896.245 191.302L890.865 176.952C890.865 176.952 887.878 157.815 888.206 148.836C888.534 139.856 872.96 129.105 863.688 126.41C854.417 123.715 843.31 130.904 843.31 130.904Z" fill="white" stroke="#FF801F" stroke-width="3.46" stroke-miterlimit="10"/>
<path d="M849.595 112.662C849.595 112.662 841.821 104.587 832.55 110.889C823.278 117.192 825.964 127.341 834.323 130.931C842.681 134.52 852.564 131.817 849.276 135.416C845.987 139.014 845.092 146.779 850.162 148.277C855.232 149.775 854.355 155.457 854.355 157.85C854.355 160.243 858.538 159.942 859.434 157.85C860.329 155.758 862.722 150.067 868.413 152.461C874.103 154.854 873.793 168.017 871.701 171.305C869.609 174.594 867.509 174.292 867.509 174.292C867.509 174.292 870.797 175.489 868.705 179.38L866.64 183.254C866.64 183.254 871.426 188.935 883.384 186.799C895.341 184.663 898.044 179.327 896.245 174.842C894.446 170.357 890.271 169.754 894.756 163.177C899.241 156.6 910.312 148.818 909.408 133.864C908.805 123.999 885.476 114.727 885.476 114.727C885.476 114.727 890.856 105.757 878.597 100.076C866.339 94.3939 852.281 100.962 853.176 106.954C854.071 112.946 849.595 112.662 849.595 112.662Z" fill="white" stroke="#007D8C" stroke-width="3.46" stroke-miterlimit="10"/>
<path d="M363.229 265.253C368.822 266.68 370.32 268.736 371.393 276.182C371.425 276.274 371.485 276.353 371.564 276.409C371.644 276.466 371.739 276.496 371.836 276.496C371.933 276.496 372.028 276.466 372.107 276.409C372.187 276.353 372.247 276.274 372.279 276.182C373.369 268.736 374.841 266.68 380.434 265.253C380.587 265.21 380.722 265.119 380.818 264.992C380.914 264.866 380.966 264.711 380.966 264.552C380.966 264.394 380.914 264.239 380.818 264.113C380.722 263.986 380.587 263.895 380.434 263.852C374.841 262.425 373.343 260.378 372.279 252.923C372.247 252.831 372.187 252.752 372.107 252.696C372.028 252.639 371.933 252.609 371.836 252.609C371.739 252.609 371.644 252.639 371.564 252.696C371.485 252.752 371.425 252.831 371.393 252.923C370.302 260.378 368.822 262.425 363.229 263.852C363.076 263.895 362.941 263.986 362.845 264.113C362.749 264.239 362.697 264.394 362.697 264.552C362.697 264.711 362.749 264.866 362.845 264.992C362.941 265.119 363.076 265.21 363.229 265.253Z" fill="#DDAEA4"/>
<path d="M306.722 561.401L297.291 602.928L279.236 601.067L282.356 561.41L306.722 561.401Z" fill="white" stroke="#FF801F" stroke-width="3.46" stroke-miterlimit="10"/>
<path d="M264.628 620H302.539C302.539 620 301.306 600.26 299.534 595.563C297.761 590.865 295.518 600.26 295.518 600.26C295.518 600.26 291.973 592.93 285.813 592.513C283.419 592.345 281.008 592.886 279.954 595.314C279.493 594.348 278.837 593.4 278.074 593.675C276.638 594.18 276.098 603.549 276.089 603.77C274.458 605.472 272.224 607.422 270.319 607.688C265.851 608.309 262.385 613.051 264.628 620Z" fill="white" stroke="#007D8C" stroke-width="2" stroke-miterlimit="10"/>
<path d="M364.47 316.946C364.47 316.946 344.278 422.231 337.072 440.596C334.413 447.422 315.285 575.504 315.285 575.504L271.249 575.176C271.249 575.176 279.289 446.34 282.054 427.629C286.327 398.68 292.522 316.344 292.522 316.344L364.47 316.946Z" fill="white" stroke="#087B89" stroke-width="2" stroke-miterlimit="10"/>
<path d="M367.519 558.919L369.912 599.569L387.232 600.952L393.924 560.976L367.519 558.919Z" fill="white" stroke="#FF801F" stroke-width="3.46" stroke-miterlimit="10"/>
<path d="M383.235 596.945C383.235 596.945 385.894 593.692 389.2 594.8C392.506 595.908 396.903 601.377 396.903 601.377C396.903 601.377 414.985 607.174 419.869 607.484C424.753 607.794 429.034 610.533 430.86 620H371.632C371.632 620 369.301 598.629 368.973 594.96C368.645 591.29 374.406 595.846 374.406 595.846L383.235 596.945Z" fill="white" stroke="#007D8C" stroke-width="2" stroke-miterlimit="10"/>
<path d="M400.608 302.782L416.988 432.22L403.577 575.335H354.844L362.245 437.414L346.361 318.391L400.608 302.782Z" fill="white" stroke="#087B89" stroke-width="2" stroke-miterlimit="10"/>
<path d="M347.921 125.462C347.85 130.009 347.451 133.838 348.701 138.181C350.128 143.145 352.601 147.497 351.901 152.913C351.219 158.169 348.116 158.94 343.303 159.401C315.825 162.06 324.104 124.832 324.051 106.502C308.424 110.047 313.414 87.2319 322.5 94.7661C324.211 96.1932 325.026 98.5953 325.487 100.714C325.54 99.9781 325.788 99.1271 325.833 98.3826L347.921 124.362V125.462Z" fill="white" stroke="#FF801F" stroke-width="3.46" stroke-miterlimit="10"/>
<path d="M323.023 102.141C323.023 102.141 322.686 98.1611 317.412 99.73C312.138 101.299 323.023 102.141 323.023 102.141Z" fill="#B8482D"/>
<path d="M397.842 238.209C397.842 238.209 441.222 277.431 456.343 223.779L402.274 220.96L397.842 238.209Z" fill="white" stroke="#FF801F" stroke-width="3.46" stroke-miterlimit="10"/>
<path d="M347.957 134.281C347.957 134.281 339.811 146.69 322.952 133.714C322.952 133.714 303.576 137.782 296.361 153.002C295.09 207.443 293.817 261.89 292.54 316.344C303.177 319.614 330.353 326.36 362.095 316.344C378.408 311.151 393.368 302.409 405.9 290.745C401.231 248.63 396.548 206.521 391.85 164.418L366.571 136.054C366.571 136.054 350.625 133.138 347.957 134.281Z" fill="white" stroke="#FF325D" stroke-width="2" stroke-miterlimit="10"/>
<path d="M422.67 191.435C419.248 180.399 405.616 159.038 405.616 159.038C391.159 132.783 351.972 133.714 351.972 133.714C351.972 133.714 360.268 197.941 357.219 232.465L357.982 305.583C357.982 305.583 385.575 316.14 409.259 306.726C409.259 306.726 410.234 245.061 406.759 207.673L422.67 191.435Z" fill="white" stroke="#0065FF" stroke-width="2" stroke-miterlimit="10"/>
<path d="M484.504 180.506L474.434 224.169C474.434 224.169 472.75 233.52 463.798 233.201L392.311 233.52C392.311 233.52 384.334 232.155 386.319 224.169L395.99 177.51C396.371 175.685 397.385 174.053 398.853 172.903C400.321 171.753 402.148 171.159 404.011 171.225H474.922C474.922 171.225 487.163 169.958 484.504 180.506Z" fill="#9B5F5C"/>
<path d="M484.504 179.442L474.434 223.141C474.434 223.141 472.75 232.501 463.798 232.182L392.311 232.501C392.311 232.501 384.334 231.136 386.319 223.141L395.99 176.482C396.373 174.658 397.388 173.028 398.855 171.88C400.323 170.732 402.149 170.139 404.011 170.206H474.922C474.922 170.206 487.163 168.885 484.504 179.442Z" fill="white" stroke="#FF325D" stroke-width="2" stroke-miterlimit="10"/>
<g opacity="0.24">
<path opacity="0.24" d="M472.892 207.009C473.02 207.009 473.145 206.966 473.246 206.887C473.347 206.809 473.419 206.698 473.45 206.574L479.921 179.983C480.053 179.161 480.019 178.32 479.819 177.511C479.62 176.703 479.259 175.943 478.76 175.276C477.67 173.991 475.977 173.353 473.654 173.362H407.832C407.751 173.351 407.668 173.359 407.59 173.383C407.512 173.407 407.44 173.447 407.379 173.501C407.318 173.556 407.269 173.622 407.235 173.696C407.202 173.771 407.184 173.852 407.184 173.933C407.184 174.015 407.202 174.096 407.235 174.17C407.269 174.245 407.318 174.311 407.379 174.365C407.44 174.419 407.512 174.46 407.59 174.484C407.668 174.508 407.751 174.515 407.832 174.505H473.654C475.622 174.505 477.023 175.001 477.882 176.012C478.648 177.092 478.965 178.426 478.769 179.735L472.378 206.3C472.359 206.372 472.356 206.447 472.367 206.521C472.378 206.594 472.404 206.665 472.442 206.729C472.481 206.792 472.532 206.847 472.593 206.891C472.653 206.934 472.722 206.965 472.794 206.982C472.826 206.996 472.858 207.005 472.892 207.009Z" fill="white" stroke="#087B89" stroke-miterlimit="10"/>
</g>
<g opacity="0.26">
<path opacity="0.26" d="M434.264 228.814H462.14C471.004 228.814 471.075 218.354 471.075 218.248C471.075 218.098 471.015 217.953 470.909 217.847C470.802 217.74 470.658 217.681 470.508 217.681C470.357 217.681 470.213 217.74 470.107 217.847C470 217.953 469.94 218.098 469.94 218.248C469.94 218.638 469.834 227.67 462.14 227.67H434.264C434.124 227.688 433.996 227.755 433.903 227.861C433.81 227.966 433.759 228.101 433.759 228.242C433.759 228.382 433.81 228.518 433.903 228.623C433.996 228.729 434.124 228.796 434.264 228.814Z" fill="white" stroke="#087B89" stroke-miterlimit="10"/>
</g>
<path d="M341.619 232.465C333.775 149.58 320.692 134.352 320.692 134.352C311.58 136.435 303.363 138.562 296.13 141.514C289.192 144.271 282.878 148.391 277.56 153.631C259.044 172.564 261.065 208.285 261.065 208.285L301.218 199.209C289.234 223.405 281.71 249.564 279.005 276.43C277.913 287.54 277.667 298.717 278.27 309.864C301.954 319.278 345.049 306.319 345.049 306.319L341.619 232.465Z" fill="white" stroke="#0065FF" stroke-width="2" stroke-miterlimit="10"/>
<path d="M347.23 74.9113C348.533 74.5213 352.468 73.5285 354.764 75.5495C357.663 78.0934 357.246 84.8476 354.676 88.3754C353.56 89.83 352.719 91.4761 352.194 93.2327C351.992 94.0772 351.947 94.9514 352.061 95.8121C352.371 99.3045 350.155 99.2247 348.737 98.8435C346.361 98.1965 347.354 92.7541 347.416 83.6332C347.443 79.8307 347.319 76.7638 347.23 74.9113Z" fill="white" stroke="#007D8C" stroke-width="3.46" stroke-miterlimit="10"/>
<path d="M352.433 101.042C350.456 92.1248 352.309 86.7799 349.579 83.5889C349.41 83.4471 349.233 83.3053 349.056 83.1812C344.822 80.0142 339.527 78.61 334.28 79.2634C333.269 79.3786 332.312 79.5204 331.39 79.6977L330.77 79.8129L330.522 79.8661C330.291 79.8661 330.061 79.9548 329.83 80.0168L329.352 80.1232C328.979 80.2118 328.625 80.3093 328.279 80.4068C317.306 83.4737 315.4 90.6445 315.87 97.4253C312.705 99.0385 312.856 102.646 313.813 106.192C314.522 108.851 316.331 111.9 319.07 113.079C319.528 114.3 320.138 115.459 320.887 116.527C322.588 118.815 324.483 120.953 326.551 122.918C330.495 126.889 336.221 127.819 341.53 127.092C355.651 125.178 355.597 115.392 352.433 101.042Z" fill="white" stroke="#FF801F" stroke-width="3.46" stroke-miterlimit="10"/>
<path d="M874.316 591.068C874.316 591.068 871.657 587.833 868.342 588.95C865.027 590.067 860.666 595.545 860.666 595.545C860.666 595.545 842.601 601.404 837.717 601.749C832.833 602.095 828.57 604.834 826.762 614.309L885.99 614.114C885.99 614.114 888.25 592.735 888.649 589.074C889.048 585.413 883.215 590.005 883.215 590.005L874.316 591.068Z" fill="white" stroke="#FF325D" stroke-width="2" stroke-miterlimit="10"/>
<path d="M901.173 593.098C901.173 593.098 898.514 589.881 895.181 591.042C891.849 592.203 887.576 597.716 887.576 597.716C887.576 597.716 869.565 603.761 864.69 604.134C859.815 604.506 855.569 607.316 853.867 616.8L913.095 615.994C913.095 615.994 915.134 594.587 915.444 590.918C915.754 587.248 910.011 591.911 910.011 591.911L901.173 593.098Z" fill="white" stroke="#FF325D" stroke-width="2" stroke-miterlimit="10"/>
<path d="M353.248 82.614C352.962 81.3714 352.232 80.2757 351.196 79.5318C350.16 78.788 348.889 78.4468 347.62 78.5721C346.947 76.0196 345.646 73.6762 343.835 71.7558C338.517 66.2603 320.364 64.6027 313.29 75.7977C309.39 82.0024 309.86 90.4496 314.062 97.585C315.022 97.0702 316.117 96.8629 317.199 96.9911C322.03 97.6647 323.936 105.545 326.994 105.323C327.25 105.296 327.491 105.191 327.685 105.022C330.3 102.939 322.544 88.1805 329.99 87.4448C337.435 86.7091 336.744 88.2425 340.157 87.9589C341.7 87.7508 343.198 87.2865 344.588 86.585C345.838 86.1063 347.85 85.9291 351.086 87.5245C351.867 86.9881 352.484 86.2444 352.866 85.3769C353.248 84.5095 353.38 83.5527 353.248 82.614Z" fill="white" stroke="#007D8C" stroke-width="3.46" stroke-miterlimit="10"/>
<path d="M391.132 199.129C381.169 198.978 377.447 211.263 370.356 216.457C362.547 222.174 353.124 223.548 344.314 226.447C335.503 229.345 313.37 232.651 303.957 237.376C304.019 225.073 302.184 214.046 299.676 201.992L262.572 210.457C264.796 233.99 266.383 279.86 300.544 274.87C315.214 272.725 329.325 264.526 341.371 256.256C354.489 247.303 367.156 238.67 378.422 227.386C380.194 226.394 383.74 224.993 385.575 224.204C389.182 222.68 392.754 220.845 396.415 219.498C398.312 218.806 403.506 217.973 400.687 214.986C403.152 215.216 404.756 212.779 402.682 211.068C404.348 210.412 404.082 208.232 403.338 206.982C403.081 206.565 407.592 203.791 405.031 202.169C404.242 201.664 401.104 202.585 400.182 202.772C398.658 203.073 397.16 203.543 395.609 203.729C392.949 204.048 390.751 203.206 391.026 200.183L391.132 199.129Z" fill="white" stroke="#FF801F" stroke-width="3.46" stroke-miterlimit="10"/>
</svg>
